<svg xmlns="http://www.w3.org/2000/svg" viewBox="0 0 128 128">
  <defs>
    <style>
      .cls-1 {
        fill: #eee;
      }

      .cls-2 {
        fill: none;
      }

      .cls-3 {
        fill: #fff;
      }
    </style>
  </defs>
  <g id="icon-avatars-default" transform="translate(-844 -358)">
    <rect id="Rectangle_1" data-name="Rectangle 1" class="cls-1" width="128" height="128" transform="translate(844 358)"/>
    <g id="baseline-sentiment_satisfied_alt-24px" transform="translate(856 370)">
      <path id="Path_1" data-name="Path 1" class="cls-2" d="M0,0H104.542V104.542H0Z"/>
      <circle id="Ellipse_1" data-name="Ellipse 1" class="cls-3" cx="6.534" cy="6.534" r="6.534" transform="translate(60.983 34.847)"/>
      <circle id="Ellipse_2" data-name="Ellipse 2" class="cls-3" cx="6.534" cy="6.534" r="6.534" transform="translate(30.491 34.847)"/>
      <path id="Path_2" data-name="Path 2" class="cls-2" d="M0,0H104.542V104.542H0Z"/>
      <circle id="Ellipse_3" data-name="Ellipse 3" class="cls-3" cx="6.534" cy="6.534" r="6.534" transform="translate(60.983 34.847)"/>
      <circle id="Ellipse_4" data-name="Ellipse 4" class="cls-3" cx="6.534" cy="6.534" r="6.534" transform="translate(30.491 34.847)"/>
      <path id="Path_3" data-name="Path 3" class="cls-3" d="M45.516,2a43.559,43.559,0,1,0,43.6,43.559A43.538,43.538,0,0,0,45.516,2Zm.044,78.407A34.847,34.847,0,1,1,80.407,45.559,34.838,34.838,0,0,1,45.559,80.407Zm0-10.89a23.936,23.936,0,0,0,22.3-15.246H60.587a17.318,17.318,0,0,1-30.056,0H23.257A23.936,23.936,0,0,0,45.559,69.517Z" transform="translate(6.712 6.712)"/>
    </g>
  </g>
</svg>
