<?xml version="1.0" encoding="utf-8"?>
<!-- Generator: Adobe Illustrator 22.1.0, SVG Export Plug-In . SVG Version: 6.00 Build 0)  -->
<svg version="1.1" id="Layer_1" xmlns="http://www.w3.org/2000/svg" xmlns:xlink="http://www.w3.org/1999/xlink" x="0px" y="0px"
	 viewBox="0 0 12 9" style="enable-background:new 0 0 12 9;" xml:space="preserve">
<style type="text/css">
	.st0{clip-path:url(#SVGID_2_);enable-background:new    ;}
	.st1{clip-path:url(#SVGID_4_);}
	.st2{clip-path:url(#SVGID_6_);fill:#666666;}
	.st3{clip-path:url(#SVGID_8_);}
	.st4{clip-path:url(#SVGID_10_);fill:#666666;}
</style>
<g>
	<defs>
		<path id="SVGID_1_" d="M3.7,7.3L1.2,4.8c-0.3-0.3-0.7-0.3-1,0s-0.3,0.7,0,1l3,3c0.3,0.3,0.7,0.3,1,0l7.6-7.6c0.3-0.3,0.3-0.7,0-1
			c-0.3-0.3-0.7-0.3-1,0L3.7,7.3z"/>
	</defs>
	<clipPath id="SVGID_2_">
		<use xlink:href="#SVGID_1_"  style="overflow:visible;"/>
	</clipPath>
	<g class="st0">
		<g>
			<defs>
				<rect id="SVGID_3_" x="-4.9" y="-4.3" width="21.5" height="17.2"/>
			</defs>
			<clipPath id="SVGID_4_">
				<use xlink:href="#SVGID_3_"  style="overflow:visible;"/>
			</clipPath>
			<g class="st1">
				<defs>
					<rect id="SVGID_5_" x="-0.6" y="-2.1" width="12.9" height="12.9"/>
				</defs>
				<clipPath id="SVGID_6_">
					<use xlink:href="#SVGID_5_"  style="overflow:visible;"/>
				</clipPath>
				<rect x="-3.6" y="-3.6" class="st2" width="19.2" height="16.1"/>
			</g>
			<g class="st1">
				<defs>
					<rect id="SVGID_7_" x="-2.7" y="-4.3" width="17.2" height="17.2"/>
				</defs>
				<clipPath id="SVGID_8_">
					<use xlink:href="#SVGID_7_"  style="overflow:visible;"/>
				</clipPath>
				<g class="st3">
					<defs>
						<rect id="SVGID_9_" x="-0.6" y="-2.1" width="12.9" height="12.9"/>
					</defs>
					<clipPath id="SVGID_10_">
						<use xlink:href="#SVGID_9_"  style="overflow:visible;"/>
					</clipPath>
					<rect x="-6.3" y="-7.9" class="st4" width="24.3" height="24.3"/>
				</g>
			</g>
		</g>
	</g>
</g>
</svg>
