<?xml version="1.0" encoding="utf-8"?>
<!-- Generator: Adobe Illustrator 22.1.0, SVG Export Plug-In . SVG Version: 6.00 Build 0)  -->
<svg version="1.1" id="Layer_1" xmlns="http://www.w3.org/2000/svg" xmlns:xlink="http://www.w3.org/1999/xlink" x="0px" y="0px"
	 viewBox="0 0 54 54" style="enable-background:new 0 0 54 54;" xml:space="preserve">
<style type="text/css">
	.st0{display:none;}
	.st1{display:inline;}
	.st2{display:inline;clip-path:url(#SVGID_2_);}
	.st3{clip-path:url(#SVGID_4_);fill:#C01713;}
	.st4{clip-path:url(#SVGID_6_);}
	.st5{clip-path:url(#SVGID_8_);fill:#FFFFFF;}
	.st6{clip-path:url(#SVGID_10_);}
	.st7{clip-path:url(#SVGID_12_);fill:#FFFFFF;}
	.st8{clip-path:url(#SVGID_14_);fill:#34BC73;}
	.st9{clip-path:url(#SVGID_16_);fill:#FFFFFF;}
</style>
<g class="st0">
	<defs>
		<circle id="SVGID_1_" cx="26.9" cy="27" r="26.5"/>
	</defs>
	<clipPath id="SVGID_2_" class="st1">
		<use xlink:href="#SVGID_1_"  style="overflow:visible;"/>
	</clipPath>
	<g class="st2">
		<g>
			<defs>
				<rect id="SVGID_3_" x="0.1" y="0.1" width="53.7" height="53.7"/>
			</defs>
			<clipPath id="SVGID_4_">
				<use xlink:href="#SVGID_3_"  style="overflow:visible;"/>
			</clipPath>
			<rect x="-4.9" y="-4.9" class="st3" width="63.9" height="63.9"/>
		</g>
		<g>
			<g>
				<defs>
					<path id="SVGID_5_" d="M26.9,32L26.9,32c-1,0-1.8-0.8-1.9-1.8l-0.6-16.4c0-1.1,0.8-2,1.9-2.1c0,0,0.1,0,0.1,0h1.1
						c1.1,0,2,0.9,2,2c0,0,0,0.1,0,0.1l-0.7,16.4C28.8,31.2,27.9,32,26.9,32z"/>
				</defs>
				<clipPath id="SVGID_6_">
					<use xlink:href="#SVGID_5_"  style="overflow:visible;"/>
				</clipPath>
				<g class="st4">
					<defs>
						<rect id="SVGID_7_" x="0.1" y="-0.4" width="53.7" height="53.7"/>
					</defs>
					<clipPath id="SVGID_8_">
						<use xlink:href="#SVGID_7_"  style="overflow:visible;"/>
					</clipPath>
					<rect x="19.4" y="6.8" class="st5" width="15" height="30.2"/>
				</g>
			</g>
			<g>
				<defs>
					<path id="SVGID_9_" d="M24.4,39.1c0-1.1,0.2-1.9,0.7-2.3c0.5-0.5,1.1-0.7,1.8-0.7c0.7,0,1.3,0.2,1.8,0.7
						c0.5,0.5,0.8,1.2,0.8,2.3c0,1.1-0.3,1.9-0.8,2.4c-0.5,0.5-1.1,0.7-1.8,0.7c-0.7,0-1.3-0.2-1.8-0.7
						C24.6,40.9,24.4,40.2,24.4,39.1z"/>
				</defs>
				<clipPath id="SVGID_10_">
					<use xlink:href="#SVGID_9_"  style="overflow:visible;"/>
				</clipPath>
				<g class="st6">
					<defs>
						<rect id="SVGID_11_" x="0.1" y="-0.4" width="53.7" height="53.7"/>
					</defs>
					<clipPath id="SVGID_12_">
						<use xlink:href="#SVGID_11_"  style="overflow:visible;"/>
					</clipPath>
					<rect x="19.4" y="31.1" class="st7" width="15" height="16"/>
				</g>
			</g>
		</g>
	</g>
</g>
<g>
	<g>
		<defs>
			<circle id="SVGID_13_" cx="27" cy="27" r="26.5"/>
		</defs>
		<clipPath id="SVGID_14_">
			<use xlink:href="#SVGID_13_"  style="overflow:visible;"/>
		</clipPath>
		<rect x="-16.1" y="-16.1" class="st8" width="86.1" height="86.1"/>
	</g>
	<g>
		<defs>
			<path id="SVGID_15_" d="M21.5,35.6L14,28.1c-0.8-0.8-2.2-0.8-3,0c-0.8,0.8-0.8,2.2,0,3l8.1,8.1c1.3,1.3,3.4,1.3,4.7,0l18.8-18.6
				c0.8-0.8,0.8-2.1,0-3c0,0,0,0,0,0c-0.8-0.8-2.2-0.8-3,0L21.5,35.6z"/>
		</defs>
		<clipPath id="SVGID_16_">
			<use xlink:href="#SVGID_15_"  style="overflow:visible;"/>
		</clipPath>
		<rect x="-6.1" y="0.5" class="st9" width="65.9" height="56.2"/>
	</g>
</g>
</svg>
